<svg xmlns="http://www.w3.org/2000/svg" class="svg-symbols">
    <symbol id="icon-svg-angle-right" viewBox="0 0 11 18">
      <path fill-rule="evenodd" d="M10.422 9l.612-.612L2.656.011-.034 2.7l6.3 6.3-6.3 6.3 2.69 2.69 8.378-8.378L10.422 9z"/>
    </symbol>
    <symbol id="icon-svg-expand-more" viewBox="0 0 12 8">
      <path d="M10.59.59L6 5.17 1.41.59 0 2l6 6 6-6z"/>
    </symbol>
    <symbol id="icon-svg-place" viewBox="0 0 12 16">
      <path fill="#FFF" d="M6 .5A5.246 5.246 0 0 0 .75 5.75C.75 9.688 6 15.5 6 15.5s5.25-5.813 5.25-9.75A5.246 5.246 0 0 0 6 .5zm0 7.125a1.876 1.876 0 1 1 .001-3.751A1.876 1.876 0 0 1 6 7.625z"/>
    </symbol>
    <symbol id="icon-svg-search" viewBox="0 0 17 17">
      <path d="M12.15 10.692h-.768l-.272-.263a6.29 6.29 0 0 0 1.526-4.111 6.318 6.318 0 1 0-6.318 6.318 6.29 6.29 0 0 0 4.111-1.526l.263.272v.768l4.86 4.85L17 15.552l-4.85-4.86zm-5.832 0a4.368 4.368 0 0 1-4.374-4.374 4.368 4.368 0 0 1 4.374-4.374 4.368 4.368 0 0 1 4.374 4.374 4.368 4.368 0 0 1-4.374 4.374z"/>
    </symbol>
    <symbol id="icon-svg-visibility" viewBox="0 0 22 15">
      <path fill="#FFF" d="M11 0C6 0 1.73 3.11 0 7.5 1.73 11.89 6 15 11 15s9.27-3.11 11-7.5C20.27 3.11 16 0 11 0zm0 12.5c-2.76 0-5-2.24-5-5s2.24-5 5-5 5 2.24 5 5-2.24 5-5 5zm0-8c-1.66 0-3 1.34-3 3s1.34 3 3 3 3-1.34 3-3-1.34-3-3-3z"/>
    </symbol></svg>