<svg xmlns="http://www.w3.org/2000/svg" class="svg-symbols">
    <symbol id="icon-svg-call-answer" viewBox="0 0 348.077 348.077">
      <path d="M340.273 275.083l-53.755-53.761c-10.707-10.664-28.438-10.34-39.518.744l-27.082 27.076a792.327 792.327 0 0 1-5.344-2.973c-17.102-9.476-40.509-22.464-65.14-47.113-24.704-24.701-37.704-48.144-47.209-65.257-1.003-1.813-1.964-3.561-2.913-5.221l18.176-18.149 8.936-8.947c11.097-11.1 11.403-28.826.721-39.521L73.39 8.194c-10.682-10.68-28.421-10.356-39.518.744l-15.15 15.237.414.411c-5.08 6.482-9.325 13.958-12.484 22.02C3.74 54.28 1.927 61.603 1.098 68.941-6 127.785 20.89 181.564 93.866 254.541c100.875 100.868 182.167 93.248 185.674 92.876 7.638-.913 14.958-2.738 22.397-5.627 7.992-3.122 15.463-7.361 21.941-12.43l.331.294 15.348-15.029c11.074-11.098 11.393-28.83.716-39.542z"/>
    </symbol>
    <symbol id="icon-svg-close-cross" viewBox="0 0 41.756 41.756">
      <path d="M27.948 20.878L40.291 8.536a5 5 0 1 0-7.07-7.071L20.878 13.809 8.535 1.465a5 5 0 0 0-7.07 7.071l12.342 12.342L1.465 33.22a5 5 0 1 0 7.07 7.071l12.343-12.342 12.343 12.343c.976.977 2.256 1.464 3.535 1.464s2.56-.487 3.535-1.464a5 5 0 0 0 0-7.071L27.948 20.878z"/>
    </symbol>
    <symbol id="icon-svg-magnifying-glass" viewBox="0 0 512 512">
      <path d="M495 466.2L377.2 348.4c29.2-35.6 46.8-81.2 46.8-130.9C424 103.5 331.5 11 217.5 11 103.4 11 11 103.5 11 217.5S103.4 424 217.5 424c49.7 0 95.2-17.5 130.8-46.7L466.1 495c8 8 20.9 8 28.9 0 8-7.9 8-20.9 0-28.8zm-277.5-83.3C126.2 382.9 52 308.7 52 217.5S126.2 52 217.5 52C308.7 52 383 126.3 383 217.5s-74.3 165.4-165.5 165.4z"/>
    </symbol>
    <symbol id="icon-svg-menu-button-of-three-horizontal-lines" viewBox="0 0 124 124">
      <path d="M112 6H12C5.4 6 0 11.4 0 18s5.4 12 12 12h100c6.6 0 12-5.4 12-12s-5.4-12-12-12zm0 44H12C5.4 50 0 55.4 0 62s5.4 12 12 12h100c6.6 0 12-5.4 12-12s-5.4-12-12-12zm0 44H12c-6.6 0-12 5.4-12 12s5.4 12 12 12h100c6.6 0 12-5.4 12-12s-5.4-12-12-12z"/>
    </symbol>
    <symbol id="icon-svg-right-arrow-angle" viewBox="0 0 299.123 512">
      <path d="M292.968 239.761L36.756 6.274c-8.408-8.365-22.043-8.365-30.45 0-8.408 8.364-8.408 21.936 0 30.301L247.069 256 6.327 475.425c-8.408 8.365-8.408 21.937 0 30.301 8.408 8.364 22.043 8.364 30.45 0L292.99 272.239c4.481-4.459 6.402-10.371 6.103-16.217.278-5.869-1.642-11.78-6.125-16.261z"/>
    </symbol>
    <symbol id="icon-svg-shopping-basket" viewBox="0 0 512 512">
      <path d="M35.944 264.348l34.305 205.837c2.684 16.101 16.614 27.902 32.937 27.902h310.857c16.618 0 30.706-12.219 33.056-28.67l29.292-205.069H35.944zm136.578 150.261c0 9.223-7.473 16.696-16.696 16.696-9.223 0-16.696-7.473-16.696-16.696V314.435c0-9.223 7.473-16.696 16.696-16.696 9.223 0 16.696 7.473 16.696 16.696v100.174zm100.174 0c0 9.223-7.473 16.696-16.696 16.696s-16.696-7.473-16.696-16.696V314.435c0-9.223 7.473-16.696 16.696-16.696s16.696 7.473 16.696 16.696v100.174zm100.174 0c0 9.223-7.473 16.696-16.696 16.696-9.223 0-16.696-7.473-16.696-16.696V314.435c0-9.223 7.473-16.696 16.696-16.696 9.223 0 16.696 7.473 16.696 16.696v100.174zm122.434-250.435h-48.739L301.195 18.805c-6.521-6.521-17.087-6.521-23.609 0-6.521 6.516-6.521 17.092 0 23.609l121.761 121.76H112.652l121.76-121.761c6.521-6.516 6.521-17.092 0-23.609-6.521-6.521-17.087-6.521-23.609 0L65.435 164.174H16.696C7.475 164.174 0 171.649 0 180.87v33.391c0 9.22 7.475 16.696 16.696 16.696h478.609c9.22 0 16.696-7.475 16.696-16.696V180.87c-.001-9.221-7.476-16.696-16.697-16.696z"/>
    </symbol>
    <symbol id="icon-svg-user-shape" viewBox="0 0 438.529 438.529">
      <path d="M219.265 219.267c30.271 0 56.108-10.71 77.518-32.121 21.412-21.411 32.12-47.248 32.12-77.515 0-30.262-10.708-56.1-32.12-77.516C275.366 10.705 249.528 0 219.265 0S163.16 10.705 141.75 32.115c-21.414 21.416-32.121 47.253-32.121 77.516 0 30.267 10.707 56.104 32.121 77.515 21.416 21.411 47.251 32.121 77.515 32.121z"/><path d="M419.258 335.036c-.668-9.609-2.002-19.985-3.997-31.121-1.999-11.136-4.524-21.457-7.57-30.978-3.046-9.514-7.139-18.794-12.278-27.836-5.137-9.041-11.037-16.748-17.703-23.127-6.666-6.377-14.801-11.465-24.406-15.271-9.617-3.805-20.229-5.711-31.84-5.711-1.711 0-5.709 2.046-11.991 6.139a2716.072 2716.072 0 0 1-21.266 13.708c-7.898 5.037-18.182 9.609-30.834 13.695-12.658 4.093-25.361 6.14-38.118 6.14-12.752 0-25.456-2.047-38.112-6.14-12.655-4.086-22.936-8.658-30.835-13.695a2784.143 2784.143 0 0 1-21.267-13.708c-6.283-4.093-10.278-6.139-11.991-6.139-11.61 0-22.222 1.906-31.833 5.711-9.613 3.806-17.749 8.898-24.412 15.271-6.661 6.379-12.562 14.086-17.699 23.127-5.137 9.042-9.229 18.326-12.275 27.836-3.045 9.521-5.568 19.842-7.566 30.978-2 11.136-3.332 21.505-3.999 31.121a427.742 427.742 0 0 0-.998 29.554c0 22.836 6.949 40.875 20.842 54.104 13.896 13.224 32.36 19.835 55.39 19.835h249.533c23.028 0 41.49-6.611 55.388-19.835 13.901-13.229 20.845-31.265 20.845-54.104-.002-10.088-.334-19.938-1.008-29.554z"/>
    </symbol></svg>