<svg xmlns="http://www.w3.org/2000/svg" viewBox="0 0 512 512"><path d="M35.944 264.348l34.305 205.837c2.684 16.101 16.614 27.902 32.937 27.902h310.857c16.618 0 30.706-12.219 33.056-28.67l29.292-205.069H35.944zm136.578 150.261c0 9.223-7.473 16.696-16.696 16.696-9.223 0-16.696-7.473-16.696-16.696V314.435c0-9.223 7.473-16.696 16.696-16.696 9.223 0 16.696 7.473 16.696 16.696v100.174zm100.174 0c0 9.223-7.473 16.696-16.696 16.696s-16.696-7.473-16.696-16.696V314.435c0-9.223 7.473-16.696 16.696-16.696s16.696 7.473 16.696 16.696v100.174zm100.174 0c0 9.223-7.473 16.696-16.696 16.696-9.223 0-16.696-7.473-16.696-16.696V314.435c0-9.223 7.473-16.696 16.696-16.696 9.223 0 16.696 7.473 16.696 16.696v100.174zm122.434-250.435h-48.739L301.195 18.805c-6.521-6.521-17.087-6.521-23.609 0-6.521 6.516-6.521 17.092 0 23.609l121.761 121.76H112.652l121.76-121.761c6.521-6.516 6.521-17.092 0-23.609-6.521-6.521-17.087-6.521-23.609 0L65.435 164.174H16.696C7.475 164.174 0 171.649 0 180.87v33.391c0 9.22 7.475 16.696 16.696 16.696h478.609c9.22 0 16.696-7.475 16.696-16.696V180.87c-.001-9.221-7.476-16.696-16.697-16.696z"/></svg>